<svg width="96" height="16" viewBox="0 0 96 16" fill="none" xmlns="http://www.w3.org/2000/svg">
<path d="M1.15909 12V3.27273H4.10369C4.67188 3.27273 5.14489 3.37216 5.52273 3.57102C5.90341 3.76989 6.18892 4.04119 6.37926 4.38494C6.5696 4.72869 6.66477 5.11932 6.66477 5.55682C6.66477 5.92045 6.60369 6.23153 6.48153 6.49006C6.35938 6.74858 6.19318 6.95739 5.98295 7.11648C5.77273 7.27557 5.53835 7.39062 5.27983 7.46165V7.52983C5.56108 7.54972 5.83381 7.64915 6.09801 7.82812C6.36222 8.00426 6.57955 8.25142 6.75 8.5696C6.92045 8.88778 7.00568 9.26847 7.00568 9.71165C7.00568 10.152 6.90767 10.5455 6.71165 10.892C6.51562 11.2358 6.21449 11.5071 5.80824 11.706C5.40483 11.902 4.89062 12 4.26562 12H1.15909ZM1.95597 11.2841H4.26562C4.93892 11.2841 5.43608 11.1349 5.7571 10.8366C6.08097 10.5384 6.2429 10.1634 6.2429 9.71165C6.2429 9.37926 6.16193 9.07812 6 8.80824C5.84091 8.53551 5.61506 8.3196 5.32244 8.16051C5.03267 8.00142 4.69176 7.92188 4.29972 7.92188H1.95597V11.2841ZM1.95597 7.21449H4.17614C4.51989 7.21449 4.82102 7.14347 5.07955 7.00142C5.33807 6.85937 5.53977 6.66335 5.68466 6.41335C5.82955 6.16335 5.90199 5.87784 5.90199 5.55682C5.90199 5.09375 5.75142 4.71733 5.45028 4.42756C5.14915 4.13494 4.70028 3.98864 4.10369 3.98864H1.95597V7.21449ZM10.4671 12.1491C10.0722 12.1491 9.7114 12.0724 9.38469 11.919C9.05799 11.7628 8.79804 11.5384 8.60486 11.2457C8.41168 10.9503 8.31509 10.5923 8.31509 10.1719C8.31509 9.84801 8.37617 9.57528 8.49833 9.35369C8.62049 9.1321 8.79378 8.95028 9.01821 8.80824C9.24264 8.66619 9.50827 8.55398 9.81509 8.47159C10.1219 8.3892 10.46 8.32528 10.8293 8.27983C11.1958 8.23437 11.5054 8.1946 11.7583 8.16051C12.014 8.12642 12.2086 8.07244 12.3421 7.99858C12.4756 7.92472 12.5424 7.8054 12.5424 7.64062V7.48722C12.5424 7.04119 12.4088 6.69034 12.1418 6.43466C11.8776 6.17614 11.4969 6.04688 10.9997 6.04688C10.5282 6.04688 10.1432 6.15057 9.84492 6.35795C9.54946 6.56534 9.34208 6.80966 9.22276 7.09091L8.50259 6.83097C8.65032 6.47301 8.85486 6.1875 9.11622 5.97443C9.37759 5.75852 9.6702 5.60369 9.99407 5.50994C10.3179 5.41335 10.6461 5.36506 10.9784 5.36506C11.2284 5.36506 11.4884 5.39773 11.7583 5.46307C12.031 5.52841 12.2838 5.64205 12.5168 5.80398C12.7497 5.96307 12.9387 6.18608 13.0836 6.47301C13.2284 6.7571 13.3009 7.1179 13.3009 7.5554V12H12.5424V10.9645H12.4955C12.4046 11.1577 12.2696 11.3452 12.0907 11.527C11.9117 11.7088 11.6872 11.858 11.4174 11.9744C11.1475 12.0909 10.8307 12.1491 10.4671 12.1491ZM10.5693 11.4545C10.9728 11.4545 11.3222 11.3651 11.6176 11.1861C11.9131 11.0071 12.1404 10.7699 12.2995 10.4744C12.4614 10.1761 12.5424 9.84801 12.5424 9.49006V8.54403C12.4855 8.59801 12.3904 8.64631 12.2568 8.68892C12.1262 8.73153 11.9742 8.76989 11.8009 8.80398C11.6304 8.83523 11.46 8.86222 11.2895 8.88494C11.1191 8.90767 10.9657 8.92756 10.8293 8.9446C10.46 8.99006 10.1446 9.06108 9.88327 9.15767C9.62191 9.25426 9.42162 9.38778 9.28242 9.55824C9.14321 9.72585 9.07361 9.94176 9.07361 10.206C9.07361 10.6037 9.21566 10.9119 9.49975 11.1307C9.78384 11.3466 10.1404 11.4545 10.5693 11.4545ZM19.5844 6.89062L18.8898 7.08665C18.8216 6.89062 18.725 6.71307 18.6 6.55398C18.475 6.39489 18.3116 6.26847 18.1099 6.17472C17.9111 6.08097 17.6639 6.03409 17.3685 6.03409C16.9253 6.03409 16.5616 6.1392 16.2775 6.34943C15.9935 6.55966 15.8514 6.83097 15.8514 7.16335C15.8514 7.4446 15.948 7.6733 16.1412 7.84943C16.3372 8.02273 16.6383 8.16051 17.0446 8.26278L18.0332 8.50568C18.5815 8.6392 18.992 8.85085 19.2648 9.14062C19.5403 9.4304 19.6781 9.79403 19.6781 10.2315C19.6781 10.6009 19.5758 10.929 19.3713 11.2159C19.1668 11.5028 18.8812 11.7287 18.5148 11.8935C18.1511 12.0554 17.7293 12.1364 17.2491 12.1364C16.6099 12.1364 16.0829 11.9929 15.6682 11.706C15.2534 11.4162 14.9878 10.9986 14.8713 10.4531L15.6 10.2741C15.6937 10.6634 15.877 10.9574 16.1497 11.1562C16.4253 11.3551 16.7875 11.4545 17.2364 11.4545C17.7392 11.4545 18.1412 11.3423 18.4423 11.1179C18.7435 10.8906 18.894 10.6065 18.894 10.2656C18.894 10.0014 18.806 9.77983 18.6298 9.60085C18.4537 9.41903 18.1866 9.28551 17.8287 9.20028L16.7591 8.9446C16.1909 8.80824 15.7704 8.59233 15.4977 8.29688C15.225 8.00142 15.0886 7.63494 15.0886 7.19744C15.0886 6.83665 15.1866 6.51989 15.3827 6.24716C15.5787 5.97159 15.8486 5.75568 16.1923 5.59943C16.5361 5.44318 16.9281 5.36506 17.3685 5.36506C17.9679 5.36506 18.4466 5.50142 18.8045 5.77415C19.1653 6.04403 19.4253 6.41619 19.5844 6.89062ZM23.8533 12.1364C23.2425 12.1364 22.7141 11.9943 22.2681 11.7102C21.822 11.4233 21.4769 11.027 21.2326 10.5213C20.9911 10.0128 20.8703 9.42756 20.8703 8.76562C20.8703 8.10653 20.9911 7.52131 21.2326 7.00994C21.4769 6.49574 21.8135 6.09375 22.2425 5.80398C22.6743 5.51136 23.1729 5.36506 23.7382 5.36506C24.0933 5.36506 24.4357 5.4304 24.7652 5.56108C25.0948 5.68892 25.3902 5.88636 25.6516 6.15341C25.9158 6.41761 26.1246 6.75142 26.278 7.15483C26.4314 7.5554 26.5081 8.02983 26.5081 8.57812V8.95312H21.3945V8.28409H25.7326C25.7326 7.86364 25.6473 7.4858 25.4769 7.15057C25.3093 6.8125 25.0749 6.54545 24.7737 6.34943C24.4754 6.15341 24.1303 6.0554 23.7382 6.0554C23.3235 6.0554 22.9584 6.16619 22.6431 6.38778C22.3277 6.60937 22.0806 6.90199 21.9016 7.26562C21.7254 7.62926 21.636 8.02699 21.6331 8.45881V8.85938C21.6331 9.37926 21.7226 9.83381 21.9016 10.223C22.0834 10.6094 22.3405 10.9091 22.6729 11.1222C23.0053 11.3352 23.3987 11.4418 23.8533 11.4418C24.1629 11.4418 24.4343 11.3935 24.6672 11.2969C24.903 11.2003 25.1004 11.071 25.2595 10.9091C25.4215 10.7443 25.5436 10.5639 25.626 10.3679L26.3462 10.6023C26.2468 10.8778 26.0834 11.1321 25.8561 11.3651C25.6317 11.598 25.3504 11.7855 25.0124 11.9276C24.6772 12.0668 24.2908 12.1364 23.8533 12.1364ZM30.4042 12.1364C29.8672 12.1364 29.3971 11.9943 28.9937 11.7102C28.5903 11.4261 28.2749 11.0298 28.0476 10.5213C27.8232 10.0128 27.711 9.42045 27.711 8.74432C27.711 8.07102 27.8232 7.48153 28.0476 6.97585C28.2749 6.46733 28.5917 6.07244 28.9979 5.79119C29.4042 5.5071 29.8772 5.36506 30.417 5.36506C30.8147 5.36506 31.1457 5.43608 31.4099 5.57812C31.6741 5.71733 31.8857 5.89062 32.0448 6.09801C32.2039 6.3054 32.3275 6.5071 32.4155 6.70312H32.4837V3.27273H33.2465V12H32.505V10.7855H32.4155C32.3275 10.9844 32.2025 11.1889 32.0405 11.3991C31.8786 11.6065 31.6641 11.7812 31.3971 11.9233C31.1329 12.0653 30.8019 12.1364 30.4042 12.1364ZM30.4937 11.4418C30.917 11.4418 31.2778 11.3267 31.576 11.0966C31.8743 10.8636 32.1016 10.544 32.2579 10.1378C32.417 9.72869 32.4965 9.25994 32.4965 8.73153C32.4965 8.20881 32.4184 7.74716 32.2621 7.34659C32.1059 6.94318 31.8786 6.62784 31.5803 6.40057C31.282 6.17045 30.9198 6.0554 30.4937 6.0554C30.0562 6.0554 29.6868 6.17472 29.3857 6.41335C29.0874 6.64915 28.8601 6.96875 28.7039 7.37216C28.5505 7.77557 28.4738 8.22869 28.4738 8.73153C28.4738 9.24006 28.5519 9.69886 28.7082 10.108C28.8644 10.517 29.0917 10.8423 29.39 11.0838C29.6911 11.3224 30.059 11.4418 30.4937 11.4418ZM41.062 12.1364C40.4967 12.1364 39.9967 11.9929 39.562 11.706C39.1302 11.419 38.7922 11.0227 38.5478 10.517C38.3035 10.0085 38.1814 9.42187 38.1814 8.7571C38.1814 8.08665 38.3035 7.49716 38.5478 6.98864C38.7922 6.47727 39.1302 6.07955 39.562 5.79545C39.9967 5.50852 40.4967 5.36506 41.062 5.36506C41.6274 5.36506 42.126 5.50852 42.5578 5.79545C42.9896 6.08239 43.3277 6.48011 43.572 6.98864C43.8192 7.49716 43.9427 8.08665 43.9427 8.7571C43.9427 9.42187 43.8206 10.0085 43.5763 10.517C43.3319 11.0227 42.9924 11.419 42.5578 11.706C42.126 11.9929 41.6274 12.1364 41.062 12.1364ZM41.062 11.4418C41.5166 11.4418 41.9015 11.3196 42.2169 11.0753C42.5322 10.831 42.7709 10.5057 42.9328 10.0994C43.0976 9.69318 43.1799 9.24574 43.1799 8.7571C43.1799 8.26847 43.0976 7.8196 42.9328 7.41051C42.7709 7.00142 42.5322 6.6733 42.2169 6.42614C41.9015 6.17898 41.5166 6.0554 41.062 6.0554C40.6103 6.0554 40.2254 6.17898 39.9072 6.42614C39.5919 6.6733 39.3518 7.00142 39.187 7.41051C39.0251 7.8196 38.9442 8.26847 38.9442 8.7571C38.9442 9.24574 39.0251 9.69318 39.187 10.0994C39.3518 10.5057 39.5919 10.831 39.9072 11.0753C40.2226 11.3196 40.6075 11.4418 41.062 11.4418ZM46.2344 7.90909V12H45.4759V5.45455H46.2131V6.48153H46.2813C46.4347 6.14631 46.6733 5.87784 46.9972 5.67614C47.3239 5.47159 47.7273 5.36932 48.2074 5.36932C48.6477 5.36932 49.0341 5.46165 49.3665 5.64631C49.7017 5.82812 49.9617 6.09659 50.1463 6.4517C50.3338 6.80682 50.4276 7.2429 50.4276 7.75994V12H49.669V7.80682C49.669 7.26989 49.5185 6.84517 49.2173 6.53267C48.919 6.22017 48.5185 6.06392 48.0156 6.06392C47.6719 6.06392 47.3665 6.13778 47.0994 6.28551C46.8324 6.43324 46.6207 6.64631 46.4645 6.92472C46.3111 7.20028 46.2344 7.52841 46.2344 7.90909Z" fill="#7F7F7F"/>
<path d="M70.6307 4.98864V4.27273H76.9588V4.98864H74.1932V13H73.3963V4.98864H70.6307ZM85.4124 8.63636C85.4124 9.54545 85.2505 10.3366 84.9266 11.0099C84.6027 11.6804 84.1567 12.2003 83.5885 12.5696C83.0232 12.9361 82.3726 13.1193 81.6368 13.1193C80.901 13.1193 80.249 12.9361 79.6809 12.5696C79.1155 12.2003 78.6709 11.6804 78.347 11.0099C78.026 10.3366 77.8655 9.54545 77.8655 8.63636C77.8655 7.72727 78.026 6.9375 78.347 6.26705C78.6709 5.59375 79.1169 5.07386 79.6851 4.70739C80.2533 4.33807 80.9039 4.15341 81.6368 4.15341C82.3726 4.15341 83.0232 4.33807 83.5885 4.70739C84.1567 5.07386 84.6027 5.59375 84.9266 6.26705C85.2505 6.9375 85.4124 7.72727 85.4124 8.63636ZM84.6368 8.63636C84.6368 7.85511 84.5061 7.18608 84.2448 6.62926C83.9834 6.0696 83.6269 5.64205 83.1752 5.34659C82.7235 5.05114 82.2107 4.90341 81.6368 4.90341C81.0658 4.90341 80.5544 5.05114 80.1027 5.34659C79.651 5.64205 79.2931 6.06818 79.0289 6.625C78.7675 7.18182 78.6368 7.85227 78.6368 8.63636C78.6368 9.41761 78.7675 10.0866 79.0289 10.6435C79.2902 11.2003 79.6468 11.6278 80.0985 11.9261C80.5502 12.2216 81.063 12.3693 81.6368 12.3693C82.2107 12.3693 82.7235 12.2216 83.1752 11.9261C83.6297 11.6307 83.9877 11.2045 84.249 10.6477C84.5104 10.0881 84.6397 9.41761 84.6368 8.63636ZM94.0045 4.27273V13H93.2289L88.0726 5.69176H88.0045V13H87.2076V4.27273H87.9789L93.1522 11.5895H93.2204V4.27273H94.0045Z" fill="#7F7F7F"/>
<path d="M65.0518 2H56.9477C55.4577 2 54.5133 3.60731 55.2629 4.90662L60.2644 13.5755C60.5908 14.1415 61.4087 14.1415 61.7351 13.5755L66.7377 4.90662C67.4863 3.60935 66.5419 2 65.0528 2H65.0518ZM60.2603 10.9758L59.1711 8.86778L56.5428 4.16722C56.3695 3.86636 56.5836 3.48085 56.9467 3.48085H60.2593V10.9769L60.2603 10.9758ZM65.4547 4.1662L62.8274 8.8688L61.7382 10.9758V3.47983H65.0508C65.4139 3.47983 65.628 3.86534 65.4547 4.1662Z" fill="#7F7F7F"/>
</svg>
